<svg width="299" height="348" viewBox="0 0 299 348" fill="none" xmlns="http://www.w3.org/2000/svg">
<circle cx="281.359" cy="83.1345" r="12.2747" transform="rotate(-45 281.359 83.1345)" fill="#48D06D"/>
<circle cx="240.09" cy="83.2245" r="19.8627" transform="rotate(-45 240.09 83.2245)" fill="#246AC0"/>
<circle cx="177.449" cy="83.5835" r="32.1373" transform="rotate(-45 177.449 83.5835)" fill="#48D06D"/>
<path d="M12.9419 53.0173H25.9292L40.6875 99.0178L55.4458 53.0173H68.4331L45.9551 119.135H35.4199L12.9419 53.0173ZM5.04053 53.0173H18.4819L20.9795 103.695V119.135H5.04053V53.0173ZM62.8931 53.0173H76.3799V119.135H60.3955V103.695L62.8931 53.0173ZM100.947 113.367L113.662 70.0007H130.1L110.347 126.446C109.923 127.687 109.363 129.019 108.667 130.442C107.97 131.895 107.017 133.272 105.806 134.574C104.595 135.876 103.036 136.935 101.128 137.753C99.2515 138.57 96.9204 138.979 94.1353 138.979C92.6519 138.979 91.562 138.903 90.8657 138.752C90.1997 138.631 89.1704 138.404 87.7778 138.071V127.127C88.1714 127.127 88.5044 127.127 88.7769 127.127C89.0796 127.127 89.4126 127.127 89.7759 127.127C91.4106 127.127 92.7124 126.96 93.6812 126.627C94.6802 126.294 95.437 125.81 95.9517 125.174C96.4966 124.538 96.9204 123.766 97.2231 122.858L100.947 113.367ZM97.7227 70.0007L107.395 104.376L109.075 120.588H98.8125L81.3296 70.0007H97.7227ZM39.0981 194.561C39.0981 193.531 38.9468 192.608 38.644 191.791C38.3413 190.943 37.7812 190.156 36.9639 189.429C36.1465 188.703 34.9658 187.976 33.4219 187.25C31.9082 186.493 29.9102 185.706 27.4277 184.888C24.5215 183.92 21.7212 182.83 19.0269 181.619C16.3325 180.378 13.9258 178.94 11.8066 177.305C9.6875 175.64 8.00732 173.702 6.76611 171.492C5.5249 169.252 4.9043 166.649 4.9043 163.682C4.9043 160.836 5.54004 158.278 6.81152 156.008C8.08301 153.707 9.854 151.754 12.1245 150.15C14.4253 148.515 17.1196 147.274 20.2075 146.426C23.2954 145.548 26.6709 145.109 30.334 145.109C35.1777 145.109 39.4463 145.957 43.1396 147.652C46.8633 149.317 49.7695 151.694 51.8584 154.781C53.9775 157.839 55.0371 161.457 55.0371 165.635H39.189C39.189 163.969 38.8408 162.501 38.1445 161.23C37.4785 159.958 36.4644 158.959 35.1021 158.233C33.7397 157.506 32.0293 157.143 29.9707 157.143C27.9727 157.143 26.2925 157.446 24.9302 158.051C23.5679 158.656 22.5386 159.474 21.8423 160.503C21.146 161.502 20.7979 162.607 20.7979 163.818C20.7979 164.817 21.0703 165.725 21.6152 166.543C22.1904 167.33 22.9927 168.072 24.022 168.768C25.0815 169.464 26.353 170.13 27.8364 170.766C29.3501 171.402 31.0454 172.022 32.9224 172.628C36.4341 173.748 39.5522 175.004 42.2769 176.397C45.0317 177.759 47.3477 179.318 49.2246 181.074C51.1318 182.8 52.5698 184.767 53.5386 186.977C54.5376 189.187 55.0371 191.685 55.0371 194.47C55.0371 197.437 54.4619 200.071 53.3115 202.371C52.1611 204.672 50.5112 206.625 48.3618 208.229C46.2124 209.803 43.6392 210.999 40.6421 211.817C37.645 212.634 34.2998 213.043 30.6064 213.043C27.2158 213.043 23.8706 212.619 20.5708 211.771C17.3013 210.893 14.3345 209.561 11.6704 207.775C9.00635 205.959 6.87207 203.643 5.26758 200.827C3.69336 197.982 2.90625 194.606 2.90625 190.701H18.8906C18.8906 192.638 19.1479 194.273 19.6626 195.605C20.1772 196.937 20.9341 198.012 21.9331 198.829C22.9321 199.616 24.1582 200.192 25.6113 200.555C27.0645 200.888 28.7295 201.054 30.6064 201.054C32.6348 201.054 34.2695 200.767 35.5107 200.192C36.752 199.586 37.6602 198.799 38.2354 197.83C38.8105 196.831 39.0981 195.741 39.0981 194.561ZM60.6226 188.067V187.114C60.6226 183.511 61.1372 180.196 62.1665 177.169C63.1958 174.111 64.7095 171.462 66.7075 169.222C68.7056 166.982 71.1729 165.241 74.1094 164C77.0459 162.728 80.4365 162.093 84.2812 162.093C88.1562 162.093 91.562 162.728 94.4985 164C97.4653 165.241 99.9478 166.982 101.946 169.222C103.944 171.462 105.458 174.111 106.487 177.169C107.516 180.196 108.031 183.511 108.031 187.114V188.067C108.031 191.639 107.516 194.954 106.487 198.012C105.458 201.039 103.944 203.688 101.946 205.959C99.9478 208.199 97.4805 209.94 94.5439 211.181C91.6074 212.422 88.2168 213.043 84.3721 213.043C80.5273 213.043 77.1216 212.422 74.1548 211.181C71.188 209.94 68.7056 208.199 66.7075 205.959C64.7095 203.688 63.1958 201.039 62.1665 198.012C61.1372 194.954 60.6226 191.639 60.6226 188.067ZM75.9258 187.114V188.067C75.9258 189.914 76.062 191.639 76.3345 193.244C76.6069 194.848 77.061 196.256 77.6968 197.467C78.3325 198.648 79.1953 199.571 80.2852 200.237C81.375 200.903 82.7373 201.236 84.3721 201.236C85.9766 201.236 87.3086 200.903 88.3682 200.237C89.458 199.571 90.3208 198.648 90.9565 197.467C91.5923 196.256 92.0464 194.848 92.3188 193.244C92.5913 191.639 92.7275 189.914 92.7275 188.067V187.114C92.7275 185.327 92.5913 183.647 92.3188 182.073C92.0464 180.469 91.5923 179.061 90.9565 177.85C90.3208 176.609 89.458 175.64 88.3682 174.944C87.2783 174.247 85.916 173.899 84.2812 173.899C82.6768 173.899 81.3296 174.247 80.2397 174.944C79.1802 175.64 78.3325 176.609 77.6968 177.85C77.061 179.061 76.6069 180.469 76.3345 182.073C76.062 183.647 75.9258 185.327 75.9258 187.114ZM135.595 201.236C137.018 201.236 138.229 200.979 139.228 200.464C140.257 199.919 141.029 199.162 141.543 198.194C142.088 197.195 142.346 195.999 142.315 194.606H156.71C156.741 198.3 155.833 201.539 153.986 204.324C152.169 207.079 149.687 209.228 146.539 210.772C143.42 212.286 139.894 213.043 135.958 213.043C132.113 213.043 128.753 212.422 125.877 211.181C123.001 209.909 120.594 208.154 118.657 205.913C116.75 203.643 115.312 200.994 114.343 197.967C113.404 194.939 112.935 191.655 112.935 188.113V187.068C112.935 183.526 113.404 180.241 114.343 177.214C115.312 174.156 116.75 171.508 118.657 169.267C120.594 166.997 122.986 165.241 125.832 164C128.708 162.728 132.053 162.093 135.867 162.093C139.954 162.093 143.557 162.865 146.675 164.408C149.823 165.952 152.291 168.193 154.077 171.129C155.863 174.066 156.741 177.623 156.71 181.801H142.315C142.346 180.317 142.119 178.985 141.634 177.804C141.15 176.624 140.393 175.685 139.364 174.989C138.365 174.262 137.078 173.899 135.504 173.899C133.93 173.899 132.658 174.247 131.689 174.944C130.721 175.64 129.979 176.609 129.464 177.85C128.98 179.061 128.647 180.453 128.465 182.028C128.314 183.602 128.238 185.282 128.238 187.068V188.113C128.238 189.929 128.314 191.639 128.465 193.244C128.647 194.818 128.995 196.211 129.51 197.422C130.024 198.602 130.766 199.541 131.735 200.237C132.704 200.903 133.99 201.236 135.595 201.236ZM179.416 163.001V212.135H164.067V163.001H179.416ZM163.159 150.331C163.159 148.152 163.946 146.365 165.52 144.973C167.094 143.58 169.138 142.884 171.65 142.884C174.163 142.884 176.207 143.58 177.781 144.973C179.355 146.365 180.142 148.152 180.142 150.331C180.142 152.511 179.355 154.297 177.781 155.69C176.207 157.082 174.163 157.779 171.65 157.779C169.138 157.779 167.094 157.082 165.52 155.69C163.946 154.297 163.159 152.511 163.159 150.331ZM214.381 199.783V179.53C214.381 178.137 214.185 176.942 213.791 175.943C213.397 174.944 212.777 174.172 211.929 173.627C211.082 173.052 209.946 172.764 208.523 172.764C207.373 172.764 206.389 172.961 205.572 173.354C204.754 173.748 204.134 174.338 203.71 175.125C203.286 175.912 203.074 176.911 203.074 178.122H187.771C187.771 175.852 188.271 173.748 189.27 171.81C190.299 169.843 191.752 168.132 193.629 166.679C195.536 165.226 197.807 164.106 200.44 163.319C203.104 162.501 206.071 162.093 209.341 162.093C213.246 162.093 216.728 162.743 219.785 164.045C222.873 165.347 225.31 167.3 227.096 169.903C228.882 172.476 229.775 175.716 229.775 179.621V199.738C229.775 202.947 229.957 205.384 230.32 207.049C230.684 208.683 231.198 210.121 231.864 211.363V212.135H216.516C215.789 210.621 215.244 208.774 214.881 206.594C214.548 204.385 214.381 202.114 214.381 199.783ZM216.243 182.118L216.334 190.292H209.568C208.145 190.292 206.934 190.489 205.935 190.883C204.966 191.276 204.179 191.821 203.574 192.517C202.999 193.183 202.575 193.94 202.302 194.788C202.06 195.635 201.939 196.529 201.939 197.467C201.939 198.375 202.151 199.193 202.575 199.919C203.029 200.615 203.634 201.16 204.391 201.554C205.148 201.948 205.996 202.144 206.934 202.144C208.629 202.144 210.067 201.826 211.248 201.191C212.459 200.525 213.382 199.722 214.018 198.784C214.654 197.845 214.972 196.968 214.972 196.15L218.332 202.417C217.727 203.628 217.03 204.854 216.243 206.095C215.486 207.336 214.533 208.487 213.382 209.546C212.262 210.575 210.885 211.423 209.25 212.089C207.615 212.725 205.632 213.043 203.301 213.043C200.274 213.043 197.489 212.422 194.946 211.181C192.433 209.94 190.42 208.214 188.906 206.004C187.393 203.764 186.636 201.191 186.636 198.284C186.636 195.741 187.09 193.471 187.998 191.473C188.937 189.475 190.344 187.78 192.221 186.387C194.098 184.994 196.49 183.935 199.396 183.208C202.302 182.482 205.723 182.118 209.659 182.118H216.243ZM254.433 142.385V212.135H239.084V142.385H254.433ZM12.9419 239.017H25.9292L40.6875 285.018L55.4458 239.017H68.4331L45.9551 305.135H35.4199L12.9419 239.017ZM5.04053 239.017H18.4819L20.9795 289.695V305.135H5.04053V239.017ZM62.8931 239.017H76.3799V305.135H60.3955V289.695L62.8931 239.017ZM109.666 306.043C105.669 306.043 102.097 305.422 98.9487 304.181C95.8003 302.909 93.1362 301.169 90.9565 298.959C88.8071 296.749 87.1572 294.206 86.0068 291.33C84.8867 288.454 84.3267 285.411 84.3267 282.202V280.477C84.3267 276.874 84.8262 273.544 85.8252 270.487C86.8242 267.399 88.3076 264.704 90.2754 262.404C92.2432 260.103 94.7104 258.317 97.6772 257.045C100.644 255.743 104.095 255.093 108.031 255.093C111.512 255.093 114.63 255.653 117.385 256.773C120.14 257.893 122.471 259.497 124.378 261.586C126.316 263.675 127.784 266.203 128.783 269.17C129.812 272.136 130.327 275.467 130.327 279.16V285.381H90.1846V275.8H115.387V274.619C115.417 272.984 115.13 271.592 114.524 270.441C113.949 269.291 113.102 268.413 111.981 267.807C110.861 267.202 109.499 266.899 107.895 266.899C106.229 266.899 104.852 267.262 103.762 267.989C102.703 268.716 101.87 269.715 101.265 270.986C100.689 272.227 100.281 273.665 100.039 275.3C99.7964 276.935 99.6753 278.66 99.6753 280.477V282.202C99.6753 284.019 99.9175 285.669 100.402 287.152C100.917 288.635 101.643 289.907 102.582 290.967C103.55 291.996 104.701 292.798 106.033 293.373C107.395 293.948 108.939 294.236 110.665 294.236C112.753 294.236 114.812 293.843 116.84 293.055C118.869 292.268 120.609 290.967 122.062 289.15L129.01 297.415C128.011 298.838 126.588 300.215 124.742 301.547C122.925 302.879 120.746 303.969 118.203 304.817C115.66 305.634 112.814 306.043 109.666 306.043ZM164.793 293.873V235.385H180.188V305.135H166.383L164.793 293.873ZM134.641 281.158V280.204C134.641 276.481 135.05 273.09 135.867 270.032C136.685 266.945 137.896 264.296 139.5 262.086C141.104 259.845 143.103 258.12 145.494 256.909C147.886 255.698 150.641 255.093 153.759 255.093C156.544 255.093 158.981 255.743 161.07 257.045C163.159 258.317 164.945 260.103 166.428 262.404C167.912 264.704 169.123 267.399 170.061 270.487C171 273.544 171.711 276.844 172.195 280.386V281.521C171.711 284.851 171 288 170.061 290.967C169.123 293.903 167.912 296.507 166.428 298.777C164.945 301.048 163.144 302.834 161.024 304.135C158.936 305.407 156.483 306.043 153.668 306.043C150.55 306.043 147.795 305.422 145.403 304.181C143.042 302.94 141.059 301.199 139.455 298.959C137.88 296.719 136.685 294.085 135.867 291.057C135.05 288.03 134.641 284.73 134.641 281.158ZM149.944 280.204V281.158C149.944 283.005 150.065 284.715 150.308 286.289C150.55 287.864 150.958 289.256 151.534 290.467C152.139 291.648 152.926 292.571 153.895 293.237C154.894 293.903 156.12 294.236 157.573 294.236C159.541 294.236 161.161 293.767 162.432 292.828C163.734 291.89 164.688 290.558 165.293 288.832C165.929 287.107 166.201 285.078 166.11 282.747V279.16C166.171 277.162 166.035 275.406 165.702 273.892C165.369 272.348 164.839 271.062 164.112 270.032C163.416 269.003 162.523 268.231 161.433 267.717C160.374 267.172 159.117 266.899 157.664 266.899C156.241 266.899 155.03 267.232 154.031 267.898C153.062 268.564 152.275 269.503 151.67 270.714C151.064 271.894 150.625 273.302 150.353 274.937C150.081 276.541 149.944 278.297 149.944 280.204ZM205.027 256.001V305.135H189.678V256.001H205.027ZM188.77 243.331C188.77 241.152 189.557 239.365 191.131 237.973C192.706 236.58 194.749 235.884 197.262 235.884C199.774 235.884 201.818 236.58 203.392 237.973C204.966 239.365 205.753 241.152 205.753 243.331C205.753 245.511 204.966 247.297 203.392 248.69C201.818 250.082 199.774 250.779 197.262 250.779C194.749 250.779 192.706 250.082 191.131 248.69C189.557 247.297 188.77 245.511 188.77 243.331ZM239.993 292.783V272.53C239.993 271.137 239.796 269.942 239.402 268.943C239.009 267.944 238.388 267.172 237.541 266.627C236.693 266.052 235.558 265.764 234.135 265.764C232.984 265.764 232 265.961 231.183 266.354C230.366 266.748 229.745 267.338 229.321 268.125C228.897 268.912 228.686 269.911 228.686 271.122H213.382C213.382 268.852 213.882 266.748 214.881 264.81C215.91 262.843 217.363 261.132 219.24 259.679C221.147 258.226 223.418 257.106 226.052 256.319C228.716 255.501 231.683 255.093 234.952 255.093C238.857 255.093 242.339 255.743 245.396 257.045C248.484 258.347 250.921 260.3 252.708 262.903C254.494 265.476 255.387 268.716 255.387 272.621V292.738C255.387 295.947 255.568 298.384 255.932 300.049C256.295 301.683 256.81 303.121 257.476 304.363V305.135H242.127C241.4 303.621 240.855 301.774 240.492 299.594C240.159 297.385 239.993 295.114 239.993 292.783ZM241.854 275.118L241.945 283.292H235.179C233.756 283.292 232.545 283.489 231.546 283.883C230.578 284.276 229.791 284.821 229.185 285.517C228.61 286.183 228.186 286.94 227.914 287.788C227.671 288.635 227.55 289.529 227.55 290.467C227.55 291.375 227.762 292.193 228.186 292.919C228.64 293.615 229.246 294.16 230.002 294.554C230.759 294.948 231.607 295.144 232.545 295.144C234.241 295.144 235.679 294.826 236.859 294.191C238.07 293.525 238.994 292.722 239.629 291.784C240.265 290.845 240.583 289.968 240.583 289.15L243.943 295.417C243.338 296.628 242.642 297.854 241.854 299.095C241.098 300.336 240.144 301.487 238.994 302.546C237.874 303.575 236.496 304.423 234.861 305.089C233.227 305.725 231.244 306.043 228.913 306.043C225.885 306.043 223.1 305.422 220.557 304.181C218.044 302.94 216.031 301.214 214.518 299.004C213.004 296.764 212.247 294.191 212.247 291.284C212.247 288.741 212.701 286.471 213.609 284.473C214.548 282.475 215.956 280.78 217.833 279.387C219.709 277.994 222.101 276.935 225.007 276.208C227.914 275.482 231.334 275.118 235.27 275.118H241.854Z" fill="white"/>
</svg>
